<?xml version="1.0" encoding="utf-8"?>
<!-- Generator: Adobe Illustrator 19.2.0, SVG Export Plug-In . SVG Version: 6.00 Build 0)  -->
<svg version="1.1" id="Layer_1" xmlns="http://www.w3.org/2000/svg" xmlns:xlink="http://www.w3.org/1999/xlink" x="0px" y="0px"
	 viewBox="0 0 512 512" fill='#131C27' style="enable-background:new 0 0 512 512;" xml:space="preserve">
<style type="text/css">
	.st0{stroke:#000000;stroke-width:8;stroke-miterlimit:10;}
</style>
<g>
	<g>
		<path class="st0" d="M512,118.5c-0.1-3-1.9-5.7-4.6-7L348.2,31.8c-3.8-1.9-8.4-0.6-10.7,2.9L229.9,200.3l-55.4-85.9
			c-0.8-1.2-1.9-2.3-3.3-2.9L12,31.8c-5.4-2.7-12,1.4-12,7.4v79.6c0,4.6,3.7,8.3,8.3,8.3c4.6,0,8.3-3.7,8.3-8.3V52.7L159.2,124
			v335.3L16.6,388V154.3c0-4.6-3.7-8.3-8.3-8.3c-4.6,0-8.3,3.7-8.3,8.3v238.9c0,3.1,1.8,6,4.6,7.4l159.2,79.6c5.4,2.7,12-1.4,12-7.4
			V318.1L500,480.2c5.4,2.7,12-1.4,12-7.4V118.9C512,118.8,512,118.6,512,118.5z M175.8,299.5V147l145.2,225.1L175.8,299.5z
			 M495.4,459.3l-139.3-69.7l108.6-187c2.3-4,1-9-3-11.3c-4-2.3-9-1-11.3,3L344.1,377.3L239.8,215.6L347.4,50l144.7,72.4l-26.4,45.4
			c-2.3,4-1,9,3,11.3c4,2.3,9,1,11.3-3l15.4-26.4V459.3z"/>
	</g>
</g>
</svg>
